<?xml version="1.0" encoding="utf-8" standalone="no"?>
<!DOCTYPE svg PUBLIC "-//W3C//DTD SVG 1.1//EN"
  "http://www.w3.org/Graphics/SVG/1.1/DTD/svg11.dtd">
<svg xmlns:xlink="http://www.w3.org/1999/xlink" width="720pt" height="432pt" viewBox="0 0 720 432" xmlns="http://www.w3.org/2000/svg" version="1.1">
 <metadata>
  <rdf:RDF xmlns:dc="http://purl.org/dc/elements/1.1/" xmlns:cc="http://creativecommons.org/ns#" xmlns:rdf="http://www.w3.org/1999/02/22-rdf-syntax-ns#">
   <cc:Work>
    <dc:type rdf:resource="http://purl.org/dc/dcmitype/StillImage"/>
    <dc:date>2025-08-24T22:41:11.837813</dc:date>
    <dc:format>image/svg+xml</dc:format>
    <dc:creator>
     <cc:Agent>
      <dc:title>Matplotlib v3.6.3, https://matplotlib.org/</dc:title>
     </cc:Agent>
    </dc:creator>
   </cc:Work>
  </rdf:RDF>
 </metadata>
 <defs>
  <style type="text/css">*{stroke-linejoin: round; stroke-linecap: butt}</style>
 </defs>
 <g id="figure_1">
  <g id="patch_1">
   <path d="M 0 432 
L 720 432 
L 720 0 
L 0 0 
z
" style="fill: #ffffff"/>
  </g>
  <g id="axes_1">
   <g id="patch_2">
    <path d="M 90 384.48 
L 201.6 384.48 
L 201.6 51.84 
L 90 51.84 
L 90 384.48 
z
" clip-path="url(#p4d03558eb6)" style="fill: none; stroke: #000000; stroke-linejoin: miter"/>
   </g>
   <g id="patch_3">
    <path d="M 201.6 384.48 
L 648 384.48 
L 648 51.84 
L 201.6 51.84 
L 201.6 384.48 
z
" clip-path="url(#p4d03558eb6)" style="fill: none; stroke: #000000; stroke-linejoin: miter"/>
   </g>
   <g id="patch_4">
    <path d="M 212.76 201.528 
L 636.84 201.528 
L 636.84 74.016 
L 212.76 74.016 
L 212.76 201.528 
z
" clip-path="url(#p4d03558eb6)" style="fill: none; stroke: #000000; stroke-linejoin: miter"/>
   </g>
   <g id="patch_5">
    <path d="M 212.76 356.76 
L 636.84 356.76 
L 636.84 218.16 
L 212.76 218.16 
L 212.76 356.76 
z
" clip-path="url(#p4d03558eb6)" style="fill: none; stroke: #000000; stroke-linejoin: miter"/>
   </g>
   <g id="text_1">
    <!-- Navigation -->
    <g style="fill: #333333" transform="translate(109.099688 71.736375) scale(0.12 -0.12)">
     <defs>
      <path id="DejaVuSans-Bold-4e" d="M 588 4666 
L 1931 4666 
L 3628 1466 
L 3628 4666 
L 4769 4666 
L 4769 0 
L 3425 0 
L 1728 3200 
L 1728 0 
L 588 0 
L 588 4666 
z
" transform="scale(0.015625)"/>
      <path id="DejaVuSans-Bold-61" d="M 2106 1575 
Q 1756 1575 1579 1456 
Q 1403 1338 1403 1106 
Q 1403 894 1545 773 
Q 1688 653 1941 653 
Q 2256 653 2472 879 
Q 2688 1106 2688 1447 
L 2688 1575 
L 2106 1575 
z
M 3816 1997 
L 3816 0 
L 2688 0 
L 2688 519 
Q 2463 200 2181 54 
Q 1900 -91 1497 -91 
Q 953 -91 614 226 
Q 275 544 275 1050 
Q 275 1666 698 1953 
Q 1122 2241 2028 2241 
L 2688 2241 
L 2688 2328 
Q 2688 2594 2478 2717 
Q 2269 2841 1825 2841 
Q 1466 2841 1156 2769 
Q 847 2697 581 2553 
L 581 3406 
Q 941 3494 1303 3539 
Q 1666 3584 2028 3584 
Q 2975 3584 3395 3211 
Q 3816 2838 3816 1997 
z
" transform="scale(0.015625)"/>
      <path id="DejaVuSans-Bold-76" d="M 97 3500 
L 1216 3500 
L 2088 1081 
L 2956 3500 
L 4078 3500 
L 2700 0 
L 1472 0 
L 97 3500 
z
" transform="scale(0.015625)"/>
      <path id="DejaVuSans-Bold-69" d="M 538 3500 
L 1656 3500 
L 1656 0 
L 538 0 
L 538 3500 
z
M 538 4863 
L 1656 4863 
L 1656 3950 
L 538 3950 
L 538 4863 
z
" transform="scale(0.015625)"/>
      <path id="DejaVuSans-Bold-67" d="M 2919 594 
Q 2688 288 2409 144 
Q 2131 0 1766 0 
Q 1125 0 706 504 
Q 288 1009 288 1791 
Q 288 2575 706 3076 
Q 1125 3578 1766 3578 
Q 2131 3578 2409 3434 
Q 2688 3291 2919 2981 
L 2919 3500 
L 4044 3500 
L 4044 353 
Q 4044 -491 3511 -936 
Q 2978 -1381 1966 -1381 
Q 1638 -1381 1331 -1331 
Q 1025 -1281 716 -1178 
L 716 -306 
Q 1009 -475 1290 -558 
Q 1572 -641 1856 -641 
Q 2406 -641 2662 -400 
Q 2919 -159 2919 353 
L 2919 594 
z
M 2181 2772 
Q 1834 2772 1640 2515 
Q 1447 2259 1447 1791 
Q 1447 1309 1634 1061 
Q 1822 813 2181 813 
Q 2531 813 2725 1069 
Q 2919 1325 2919 1791 
Q 2919 2259 2725 2515 
Q 2531 2772 2181 2772 
z
" transform="scale(0.015625)"/>
      <path id="DejaVuSans-Bold-74" d="M 1759 4494 
L 1759 3500 
L 2913 3500 
L 2913 2700 
L 1759 2700 
L 1759 1216 
Q 1759 972 1856 886 
Q 1953 800 2241 800 
L 2816 800 
L 2816 0 
L 1856 0 
Q 1194 0 917 276 
Q 641 553 641 1216 
L 641 2700 
L 84 2700 
L 84 3500 
L 641 3500 
L 641 4494 
L 1759 4494 
z
" transform="scale(0.015625)"/>
      <path id="DejaVuSans-Bold-6f" d="M 2203 2784 
Q 1831 2784 1636 2517 
Q 1441 2250 1441 1747 
Q 1441 1244 1636 976 
Q 1831 709 2203 709 
Q 2569 709 2762 976 
Q 2956 1244 2956 1747 
Q 2956 2250 2762 2517 
Q 2569 2784 2203 2784 
z
M 2203 3584 
Q 3106 3584 3614 3096 
Q 4122 2609 4122 1747 
Q 4122 884 3614 396 
Q 3106 -91 2203 -91 
Q 1297 -91 786 396 
Q 275 884 275 1747 
Q 275 2609 786 3096 
Q 1297 3584 2203 3584 
z
" transform="scale(0.015625)"/>
      <path id="DejaVuSans-Bold-6e" d="M 4056 2131 
L 4056 0 
L 2931 0 
L 2931 347 
L 2931 1631 
Q 2931 2084 2911 2256 
Q 2891 2428 2841 2509 
Q 2775 2619 2662 2680 
Q 2550 2741 2406 2741 
Q 2056 2741 1856 2470 
Q 1656 2200 1656 1722 
L 1656 0 
L 538 0 
L 538 3500 
L 1656 3500 
L 1656 2988 
Q 1909 3294 2193 3439 
Q 2478 3584 2822 3584 
Q 3428 3584 3742 3212 
Q 4056 2841 4056 2131 
z
" transform="scale(0.015625)"/>
     </defs>
     <use xlink:href="#DejaVuSans-Bold-4e"/>
     <use xlink:href="#DejaVuSans-Bold-61" x="83.691406"/>
     <use xlink:href="#DejaVuSans-Bold-76" x="151.171875"/>
     <use xlink:href="#DejaVuSans-Bold-69" x="216.357422"/>
     <use xlink:href="#DejaVuSans-Bold-67" x="250.634766"/>
     <use xlink:href="#DejaVuSans-Bold-61" x="322.216797"/>
     <use xlink:href="#DejaVuSans-Bold-74" x="389.697266"/>
     <use xlink:href="#DejaVuSans-Bold-69" x="437.5"/>
     <use xlink:href="#DejaVuSans-Bold-6f" x="471.777344"/>
     <use xlink:href="#DejaVuSans-Bold-6e" x="540.478516"/>
    </g>
   </g>
   <g id="text_2">
    <!-- Dashboard -->
    <g style="fill: #333333" transform="translate(118.672656 98.951375) scale(0.1 -0.1)">
     <defs>
      <path id="DejaVuSans-44" d="M 1259 4147 
L 1259 519 
L 2022 519 
Q 2988 519 3436 956 
Q 3884 1394 3884 2338 
Q 3884 3275 3436 3711 
Q 2988 4147 2022 4147 
L 1259 4147 
z
M 628 4666 
L 1925 4666 
Q 3281 4666 3915 4102 
Q 4550 3538 4550 2338 
Q 4550 1131 3912 565 
Q 3275 0 1925 0 
L 628 0 
L 628 4666 
z
" transform="scale(0.015625)"/>
      <path id="DejaVuSans-61" d="M 2194 1759 
Q 1497 1759 1228 1600 
Q 959 1441 959 1056 
Q 959 750 1161 570 
Q 1363 391 1709 391 
Q 2188 391 2477 730 
Q 2766 1069 2766 1631 
L 2766 1759 
L 2194 1759 
z
M 3341 1997 
L 3341 0 
L 2766 0 
L 2766 531 
Q 2569 213 2275 61 
Q 1981 -91 1556 -91 
Q 1019 -91 701 211 
Q 384 513 384 1019 
Q 384 1609 779 1909 
Q 1175 2209 1959 2209 
L 2766 2209 
L 2766 2266 
Q 2766 2663 2505 2880 
Q 2244 3097 1772 3097 
Q 1472 3097 1187 3025 
Q 903 2953 641 2809 
L 641 3341 
Q 956 3463 1253 3523 
Q 1550 3584 1831 3584 
Q 2591 3584 2966 3190 
Q 3341 2797 3341 1997 
z
" transform="scale(0.015625)"/>
      <path id="DejaVuSans-73" d="M 2834 3397 
L 2834 2853 
Q 2591 2978 2328 3040 
Q 2066 3103 1784 3103 
Q 1356 3103 1142 2972 
Q 928 2841 928 2578 
Q 928 2378 1081 2264 
Q 1234 2150 1697 2047 
L 1894 2003 
Q 2506 1872 2764 1633 
Q 3022 1394 3022 966 
Q 3022 478 2636 193 
Q 2250 -91 1575 -91 
Q 1294 -91 989 -36 
Q 684 19 347 128 
L 347 722 
Q 666 556 975 473 
Q 1284 391 1588 391 
Q 1994 391 2212 530 
Q 2431 669 2431 922 
Q 2431 1156 2273 1281 
Q 2116 1406 1581 1522 
L 1381 1569 
Q 847 1681 609 1914 
Q 372 2147 372 2553 
Q 372 3047 722 3315 
Q 1072 3584 1716 3584 
Q 2034 3584 2315 3537 
Q 2597 3491 2834 3397 
z
" transform="scale(0.015625)"/>
      <path id="DejaVuSans-68" d="M 3513 2113 
L 3513 0 
L 2938 0 
L 2938 2094 
Q 2938 2591 2744 2837 
Q 2550 3084 2163 3084 
Q 1697 3084 1428 2787 
Q 1159 2491 1159 1978 
L 1159 0 
L 581 0 
L 581 4863 
L 1159 4863 
L 1159 2956 
Q 1366 3272 1645 3428 
Q 1925 3584 2291 3584 
Q 2894 3584 3203 3211 
Q 3513 2838 3513 2113 
z
" transform="scale(0.015625)"/>
      <path id="DejaVuSans-62" d="M 3116 1747 
Q 3116 2381 2855 2742 
Q 2594 3103 2138 3103 
Q 1681 3103 1420 2742 
Q 1159 2381 1159 1747 
Q 1159 1113 1420 752 
Q 1681 391 2138 391 
Q 2594 391 2855 752 
Q 3116 1113 3116 1747 
z
M 1159 2969 
Q 1341 3281 1617 3432 
Q 1894 3584 2278 3584 
Q 2916 3584 3314 3078 
Q 3713 2572 3713 1747 
Q 3713 922 3314 415 
Q 2916 -91 2278 -91 
Q 1894 -91 1617 61 
Q 1341 213 1159 525 
L 1159 0 
L 581 0 
L 581 4863 
L 1159 4863 
L 1159 2969 
z
" transform="scale(0.015625)"/>
      <path id="DejaVuSans-6f" d="M 1959 3097 
Q 1497 3097 1228 2736 
Q 959 2375 959 1747 
Q 959 1119 1226 758 
Q 1494 397 1959 397 
Q 2419 397 2687 759 
Q 2956 1122 2956 1747 
Q 2956 2369 2687 2733 
Q 2419 3097 1959 3097 
z
M 1959 3584 
Q 2709 3584 3137 3096 
Q 3566 2609 3566 1747 
Q 3566 888 3137 398 
Q 2709 -91 1959 -91 
Q 1206 -91 779 398 
Q 353 888 353 1747 
Q 353 2609 779 3096 
Q 1206 3584 1959 3584 
z
" transform="scale(0.015625)"/>
      <path id="DejaVuSans-72" d="M 2631 2963 
Q 2534 3019 2420 3045 
Q 2306 3072 2169 3072 
Q 1681 3072 1420 2755 
Q 1159 2438 1159 1844 
L 1159 0 
L 581 0 
L 581 3500 
L 1159 3500 
L 1159 2956 
Q 1341 3275 1631 3429 
Q 1922 3584 2338 3584 
Q 2397 3584 2469 3576 
Q 2541 3569 2628 3553 
L 2631 2963 
z
" transform="scale(0.015625)"/>
      <path id="DejaVuSans-64" d="M 2906 2969 
L 2906 4863 
L 3481 4863 
L 3481 0 
L 2906 0 
L 2906 525 
Q 2725 213 2448 61 
Q 2172 -91 1784 -91 
Q 1150 -91 751 415 
Q 353 922 353 1747 
Q 353 2572 751 3078 
Q 1150 3584 1784 3584 
Q 2172 3584 2448 3432 
Q 2725 3281 2906 2969 
z
M 947 1747 
Q 947 1113 1208 752 
Q 1469 391 1925 391 
Q 2381 391 2643 752 
Q 2906 1113 2906 1747 
Q 2906 2381 2643 2742 
Q 2381 3103 1925 3103 
Q 1469 3103 1208 2742 
Q 947 2381 947 1747 
z
" transform="scale(0.015625)"/>
     </defs>
     <use xlink:href="#DejaVuSans-44"/>
     <use xlink:href="#DejaVuSans-61" x="77.001953"/>
     <use xlink:href="#DejaVuSans-73" x="138.28125"/>
     <use xlink:href="#DejaVuSans-68" x="190.380859"/>
     <use xlink:href="#DejaVuSans-62" x="253.759766"/>
     <use xlink:href="#DejaVuSans-6f" x="317.236328"/>
     <use xlink:href="#DejaVuSans-61" x="378.417969"/>
     <use xlink:href="#DejaVuSans-72" x="439.697266"/>
     <use xlink:href="#DejaVuSans-64" x="479.060547"/>
    </g>
   </g>
   <g id="text_3">
    <!-- Templates -->
    <g style="fill: #333333" transform="translate(120.380469 140.531375) scale(0.1 -0.1)">
     <defs>
      <path id="DejaVuSans-54" d="M -19 4666 
L 3928 4666 
L 3928 4134 
L 2272 4134 
L 2272 0 
L 1638 0 
L 1638 4134 
L -19 4134 
L -19 4666 
z
" transform="scale(0.015625)"/>
      <path id="DejaVuSans-65" d="M 3597 1894 
L 3597 1613 
L 953 1613 
Q 991 1019 1311 708 
Q 1631 397 2203 397 
Q 2534 397 2845 478 
Q 3156 559 3463 722 
L 3463 178 
Q 3153 47 2828 -22 
Q 2503 -91 2169 -91 
Q 1331 -91 842 396 
Q 353 884 353 1716 
Q 353 2575 817 3079 
Q 1281 3584 2069 3584 
Q 2775 3584 3186 3129 
Q 3597 2675 3597 1894 
z
M 3022 2063 
Q 3016 2534 2758 2815 
Q 2500 3097 2075 3097 
Q 1594 3097 1305 2825 
Q 1016 2553 972 2059 
L 3022 2063 
z
" transform="scale(0.015625)"/>
      <path id="DejaVuSans-6d" d="M 3328 2828 
Q 3544 3216 3844 3400 
Q 4144 3584 4550 3584 
Q 5097 3584 5394 3201 
Q 5691 2819 5691 2113 
L 5691 0 
L 5113 0 
L 5113 2094 
Q 5113 2597 4934 2840 
Q 4756 3084 4391 3084 
Q 3944 3084 3684 2787 
Q 3425 2491 3425 1978 
L 3425 0 
L 2847 0 
L 2847 2094 
Q 2847 2600 2669 2842 
Q 2491 3084 2119 3084 
Q 1678 3084 1418 2786 
Q 1159 2488 1159 1978 
L 1159 0 
L 581 0 
L 581 3500 
L 1159 3500 
L 1159 2956 
Q 1356 3278 1631 3431 
Q 1906 3584 2284 3584 
Q 2666 3584 2933 3390 
Q 3200 3197 3328 2828 
z
" transform="scale(0.015625)"/>
      <path id="DejaVuSans-70" d="M 1159 525 
L 1159 -1331 
L 581 -1331 
L 581 3500 
L 1159 3500 
L 1159 2969 
Q 1341 3281 1617 3432 
Q 1894 3584 2278 3584 
Q 2916 3584 3314 3078 
Q 3713 2572 3713 1747 
Q 3713 922 3314 415 
Q 2916 -91 2278 -91 
Q 1894 -91 1617 61 
Q 1341 213 1159 525 
z
M 3116 1747 
Q 3116 2381 2855 2742 
Q 2594 3103 2138 3103 
Q 1681 3103 1420 2742 
Q 1159 2381 1159 1747 
Q 1159 1113 1420 752 
Q 1681 391 2138 391 
Q 2594 391 2855 752 
Q 3116 1113 3116 1747 
z
" transform="scale(0.015625)"/>
      <path id="DejaVuSans-6c" d="M 603 4863 
L 1178 4863 
L 1178 0 
L 603 0 
L 603 4863 
z
" transform="scale(0.015625)"/>
      <path id="DejaVuSans-74" d="M 1172 4494 
L 1172 3500 
L 2356 3500 
L 2356 3053 
L 1172 3053 
L 1172 1153 
Q 1172 725 1289 603 
Q 1406 481 1766 481 
L 2356 481 
L 2356 0 
L 1766 0 
Q 1100 0 847 248 
Q 594 497 594 1153 
L 594 3053 
L 172 3053 
L 172 3500 
L 594 3500 
L 594 4494 
L 1172 4494 
z
" transform="scale(0.015625)"/>
     </defs>
     <use xlink:href="#DejaVuSans-54"/>
     <use xlink:href="#DejaVuSans-65" x="44.083984"/>
     <use xlink:href="#DejaVuSans-6d" x="105.607422"/>
     <use xlink:href="#DejaVuSans-70" x="203.019531"/>
     <use xlink:href="#DejaVuSans-6c" x="266.496094"/>
     <use xlink:href="#DejaVuSans-61" x="294.279297"/>
     <use xlink:href="#DejaVuSans-74" x="355.558594"/>
     <use xlink:href="#DejaVuSans-65" x="394.767578"/>
     <use xlink:href="#DejaVuSans-73" x="456.291016"/>
    </g>
   </g>
   <g id="text_4">
    <!-- Quick Actions -->
    <g style="fill: #333333" transform="translate(111.808594 182.111375) scale(0.1 -0.1)">
     <defs>
      <path id="DejaVuSans-51" d="M 2522 4238 
Q 1834 4238 1429 3725 
Q 1025 3213 1025 2328 
Q 1025 1447 1429 934 
Q 1834 422 2522 422 
Q 3209 422 3611 934 
Q 4013 1447 4013 2328 
Q 4013 3213 3611 3725 
Q 3209 4238 2522 4238 
z
M 3406 84 
L 4238 -825 
L 3475 -825 
L 2784 -78 
Q 2681 -84 2626 -87 
Q 2572 -91 2522 -91 
Q 1538 -91 948 567 
Q 359 1225 359 2328 
Q 359 3434 948 4092 
Q 1538 4750 2522 4750 
Q 3503 4750 4090 4092 
Q 4678 3434 4678 2328 
Q 4678 1516 4351 937 
Q 4025 359 3406 84 
z
" transform="scale(0.015625)"/>
      <path id="DejaVuSans-75" d="M 544 1381 
L 544 3500 
L 1119 3500 
L 1119 1403 
Q 1119 906 1312 657 
Q 1506 409 1894 409 
Q 2359 409 2629 706 
Q 2900 1003 2900 1516 
L 2900 3500 
L 3475 3500 
L 3475 0 
L 2900 0 
L 2900 538 
Q 2691 219 2414 64 
Q 2138 -91 1772 -91 
Q 1169 -91 856 284 
Q 544 659 544 1381 
z
M 1991 3584 
L 1991 3584 
z
" transform="scale(0.015625)"/>
      <path id="DejaVuSans-69" d="M 603 3500 
L 1178 3500 
L 1178 0 
L 603 0 
L 603 3500 
z
M 603 4863 
L 1178 4863 
L 1178 4134 
L 603 4134 
L 603 4863 
z
" transform="scale(0.015625)"/>
      <path id="DejaVuSans-63" d="M 3122 3366 
L 3122 2828 
Q 2878 2963 2633 3030 
Q 2388 3097 2138 3097 
Q 1578 3097 1268 2742 
Q 959 2388 959 1747 
Q 959 1106 1268 751 
Q 1578 397 2138 397 
Q 2388 397 2633 464 
Q 2878 531 3122 666 
L 3122 134 
Q 2881 22 2623 -34 
Q 2366 -91 2075 -91 
Q 1284 -91 818 406 
Q 353 903 353 1747 
Q 353 2603 823 3093 
Q 1294 3584 2113 3584 
Q 2378 3584 2631 3529 
Q 2884 3475 3122 3366 
z
" transform="scale(0.015625)"/>
      <path id="DejaVuSans-6b" d="M 581 4863 
L 1159 4863 
L 1159 1991 
L 2875 3500 
L 3609 3500 
L 1753 1863 
L 3688 0 
L 2938 0 
L 1159 1709 
L 1159 0 
L 581 0 
L 581 4863 
z
" transform="scale(0.015625)"/>
      <path id="DejaVuSans-20" transform="scale(0.015625)"/>
      <path id="DejaVuSans-41" d="M 2188 4044 
L 1331 1722 
L 3047 1722 
L 2188 4044 
z
M 1831 4666 
L 2547 4666 
L 4325 0 
L 3669 0 
L 3244 1197 
L 1141 1197 
L 716 0 
L 50 0 
L 1831 4666 
z
" transform="scale(0.015625)"/>
      <path id="DejaVuSans-6e" d="M 3513 2113 
L 3513 0 
L 2938 0 
L 2938 2094 
Q 2938 2591 2744 2837 
Q 2550 3084 2163 3084 
Q 1697 3084 1428 2787 
Q 1159 2491 1159 1978 
L 1159 0 
L 581 0 
L 581 3500 
L 1159 3500 
L 1159 2956 
Q 1366 3272 1645 3428 
Q 1925 3584 2291 3584 
Q 2894 3584 3203 3211 
Q 3513 2838 3513 2113 
z
" transform="scale(0.015625)"/>
     </defs>
     <use xlink:href="#DejaVuSans-51"/>
     <use xlink:href="#DejaVuSans-75" x="78.710938"/>
     <use xlink:href="#DejaVuSans-69" x="142.089844"/>
     <use xlink:href="#DejaVuSans-63" x="169.873047"/>
     <use xlink:href="#DejaVuSans-6b" x="224.853516"/>
     <use xlink:href="#DejaVuSans-20" x="282.763672"/>
     <use xlink:href="#DejaVuSans-41" x="314.550781"/>
     <use xlink:href="#DejaVuSans-63" x="381.208984"/>
     <use xlink:href="#DejaVuSans-74" x="436.189453"/>
     <use xlink:href="#DejaVuSans-69" x="475.398438"/>
     <use xlink:href="#DejaVuSans-6f" x="503.181641"/>
     <use xlink:href="#DejaVuSans-6e" x="564.363281"/>
     <use xlink:href="#DejaVuSans-73" x="627.742188"/>
    </g>
   </g>
   <g id="text_5">
    <!-- Reminders -->
    <g style="fill: #333333" transform="translate(119.135156 223.691375) scale(0.1 -0.1)">
     <defs>
      <path id="DejaVuSans-52" d="M 2841 2188 
Q 3044 2119 3236 1894 
Q 3428 1669 3622 1275 
L 4263 0 
L 3584 0 
L 2988 1197 
Q 2756 1666 2539 1819 
Q 2322 1972 1947 1972 
L 1259 1972 
L 1259 0 
L 628 0 
L 628 4666 
L 2053 4666 
Q 2853 4666 3247 4331 
Q 3641 3997 3641 3322 
Q 3641 2881 3436 2590 
Q 3231 2300 2841 2188 
z
M 1259 4147 
L 1259 2491 
L 2053 2491 
Q 2509 2491 2742 2702 
Q 2975 2913 2975 3322 
Q 2975 3731 2742 3939 
Q 2509 4147 2053 4147 
L 1259 4147 
z
" transform="scale(0.015625)"/>
     </defs>
     <use xlink:href="#DejaVuSans-52"/>
     <use xlink:href="#DejaVuSans-65" x="64.982422"/>
     <use xlink:href="#DejaVuSans-6d" x="126.505859"/>
     <use xlink:href="#DejaVuSans-69" x="223.917969"/>
     <use xlink:href="#DejaVuSans-6e" x="251.701172"/>
     <use xlink:href="#DejaVuSans-64" x="315.080078"/>
     <use xlink:href="#DejaVuSans-65" x="378.556641"/>
     <use xlink:href="#DejaVuSans-72" x="440.080078"/>
     <use xlink:href="#DejaVuSans-73" x="481.193359"/>
    </g>
   </g>
   <g id="text_6">
    <!-- Attachments -->
    <g style="fill: #333333" transform="translate(113.884375 265.271375) scale(0.1 -0.1)">
     <use xlink:href="#DejaVuSans-41"/>
     <use xlink:href="#DejaVuSans-74" x="66.658203"/>
     <use xlink:href="#DejaVuSans-74" x="105.867188"/>
     <use xlink:href="#DejaVuSans-61" x="145.076172"/>
     <use xlink:href="#DejaVuSans-63" x="206.355469"/>
     <use xlink:href="#DejaVuSans-68" x="261.335938"/>
     <use xlink:href="#DejaVuSans-6d" x="324.714844"/>
     <use xlink:href="#DejaVuSans-65" x="422.126953"/>
     <use xlink:href="#DejaVuSans-6e" x="483.650391"/>
     <use xlink:href="#DejaVuSans-74" x="547.029297"/>
     <use xlink:href="#DejaVuSans-73" x="586.238281"/>
    </g>
   </g>
   <g id="text_7">
    <!-- RSVP -->
    <g style="fill: #333333" transform="translate(132.716406 306.851375) scale(0.1 -0.1)">
     <defs>
      <path id="DejaVuSans-53" d="M 3425 4513 
L 3425 3897 
Q 3066 4069 2747 4153 
Q 2428 4238 2131 4238 
Q 1616 4238 1336 4038 
Q 1056 3838 1056 3469 
Q 1056 3159 1242 3001 
Q 1428 2844 1947 2747 
L 2328 2669 
Q 3034 2534 3370 2195 
Q 3706 1856 3706 1288 
Q 3706 609 3251 259 
Q 2797 -91 1919 -91 
Q 1588 -91 1214 -16 
Q 841 59 441 206 
L 441 856 
Q 825 641 1194 531 
Q 1563 422 1919 422 
Q 2459 422 2753 634 
Q 3047 847 3047 1241 
Q 3047 1584 2836 1778 
Q 2625 1972 2144 2069 
L 1759 2144 
Q 1053 2284 737 2584 
Q 422 2884 422 3419 
Q 422 4038 858 4394 
Q 1294 4750 2059 4750 
Q 2388 4750 2728 4690 
Q 3069 4631 3425 4513 
z
" transform="scale(0.015625)"/>
      <path id="DejaVuSans-56" d="M 1831 0 
L 50 4666 
L 709 4666 
L 2188 738 
L 3669 4666 
L 4325 4666 
L 2547 0 
L 1831 0 
z
" transform="scale(0.015625)"/>
      <path id="DejaVuSans-50" d="M 1259 4147 
L 1259 2394 
L 2053 2394 
Q 2494 2394 2734 2622 
Q 2975 2850 2975 3272 
Q 2975 3691 2734 3919 
Q 2494 4147 2053 4147 
L 1259 4147 
z
M 628 4666 
L 2053 4666 
Q 2838 4666 3239 4311 
Q 3641 3956 3641 3272 
Q 3641 2581 3239 2228 
Q 2838 1875 2053 1875 
L 1259 1875 
L 1259 0 
L 628 0 
L 628 4666 
z
" transform="scale(0.015625)"/>
     </defs>
     <use xlink:href="#DejaVuSans-52"/>
     <use xlink:href="#DejaVuSans-53" x="69.482422"/>
     <use xlink:href="#DejaVuSans-56" x="132.958984"/>
     <use xlink:href="#DejaVuSans-50" x="201.367188"/>
    </g>
   </g>
   <g id="text_8">
    <!-- Settings -->
    <g style="fill: #333333" transform="translate(125.292188 348.431375) scale(0.1 -0.1)">
     <defs>
      <path id="DejaVuSans-67" d="M 2906 1791 
Q 2906 2416 2648 2759 
Q 2391 3103 1925 3103 
Q 1463 3103 1205 2759 
Q 947 2416 947 1791 
Q 947 1169 1205 825 
Q 1463 481 1925 481 
Q 2391 481 2648 825 
Q 2906 1169 2906 1791 
z
M 3481 434 
Q 3481 -459 3084 -895 
Q 2688 -1331 1869 -1331 
Q 1566 -1331 1297 -1286 
Q 1028 -1241 775 -1147 
L 775 -588 
Q 1028 -725 1275 -790 
Q 1522 -856 1778 -856 
Q 2344 -856 2625 -561 
Q 2906 -266 2906 331 
L 2906 616 
Q 2728 306 2450 153 
Q 2172 0 1784 0 
Q 1141 0 747 490 
Q 353 981 353 1791 
Q 353 2603 747 3093 
Q 1141 3584 1784 3584 
Q 2172 3584 2450 3431 
Q 2728 3278 2906 2969 
L 2906 3500 
L 3481 3500 
L 3481 434 
z
" transform="scale(0.015625)"/>
     </defs>
     <use xlink:href="#DejaVuSans-53"/>
     <use xlink:href="#DejaVuSans-65" x="63.476562"/>
     <use xlink:href="#DejaVuSans-74" x="125"/>
     <use xlink:href="#DejaVuSans-74" x="164.208984"/>
     <use xlink:href="#DejaVuSans-69" x="203.417969"/>
     <use xlink:href="#DejaVuSans-6e" x="231.201172"/>
     <use xlink:href="#DejaVuSans-67" x="294.580078"/>
     <use xlink:href="#DejaVuSans-73" x="358.056641"/>
    </g>
   </g>
   <g id="text_9">
    <!-- Content Panel -->
    <g style="fill: #333333" transform="translate(377.150625 71.78325) scale(0.12 -0.12)">
     <defs>
      <path id="DejaVuSans-Bold-43" d="M 4288 256 
Q 3956 84 3597 -3 
Q 3238 -91 2847 -91 
Q 1681 -91 1000 561 
Q 319 1213 319 2328 
Q 319 3447 1000 4098 
Q 1681 4750 2847 4750 
Q 3238 4750 3597 4662 
Q 3956 4575 4288 4403 
L 4288 3438 
Q 3953 3666 3628 3772 
Q 3303 3878 2944 3878 
Q 2300 3878 1931 3465 
Q 1563 3053 1563 2328 
Q 1563 1606 1931 1193 
Q 2300 781 2944 781 
Q 3303 781 3628 887 
Q 3953 994 4288 1222 
L 4288 256 
z
" transform="scale(0.015625)"/>
      <path id="DejaVuSans-Bold-65" d="M 4031 1759 
L 4031 1441 
L 1416 1441 
Q 1456 1047 1700 850 
Q 1944 653 2381 653 
Q 2734 653 3104 758 
Q 3475 863 3866 1075 
L 3866 213 
Q 3469 63 3072 -14 
Q 2675 -91 2278 -91 
Q 1328 -91 801 392 
Q 275 875 275 1747 
Q 275 2603 792 3093 
Q 1309 3584 2216 3584 
Q 3041 3584 3536 3087 
Q 4031 2591 4031 1759 
z
M 2881 2131 
Q 2881 2450 2695 2645 
Q 2509 2841 2209 2841 
Q 1884 2841 1681 2658 
Q 1478 2475 1428 2131 
L 2881 2131 
z
" transform="scale(0.015625)"/>
      <path id="DejaVuSans-Bold-20" transform="scale(0.015625)"/>
      <path id="DejaVuSans-Bold-50" d="M 588 4666 
L 2584 4666 
Q 3475 4666 3951 4270 
Q 4428 3875 4428 3144 
Q 4428 2409 3951 2014 
Q 3475 1619 2584 1619 
L 1791 1619 
L 1791 0 
L 588 0 
L 588 4666 
z
M 1791 3794 
L 1791 2491 
L 2456 2491 
Q 2806 2491 2997 2661 
Q 3188 2831 3188 3144 
Q 3188 3456 2997 3625 
Q 2806 3794 2456 3794 
L 1791 3794 
z
" transform="scale(0.015625)"/>
      <path id="DejaVuSans-Bold-6c" d="M 538 4863 
L 1656 4863 
L 1656 0 
L 538 0 
L 538 4863 
z
" transform="scale(0.015625)"/>
     </defs>
     <use xlink:href="#DejaVuSans-Bold-43"/>
     <use xlink:href="#DejaVuSans-Bold-6f" x="73.388672"/>
     <use xlink:href="#DejaVuSans-Bold-6e" x="142.089844"/>
     <use xlink:href="#DejaVuSans-Bold-74" x="213.28125"/>
     <use xlink:href="#DejaVuSans-Bold-65" x="261.083984"/>
     <use xlink:href="#DejaVuSans-Bold-6e" x="328.90625"/>
     <use xlink:href="#DejaVuSans-Bold-74" x="400.097656"/>
     <use xlink:href="#DejaVuSans-Bold-20" x="447.900391"/>
     <use xlink:href="#DejaVuSans-Bold-50" x="482.714844"/>
     <use xlink:href="#DejaVuSans-Bold-61" x="553.380859"/>
     <use xlink:href="#DejaVuSans-Bold-6e" x="620.861328"/>
     <use xlink:href="#DejaVuSans-Bold-65" x="692.052734"/>
     <use xlink:href="#DejaVuSans-Bold-6c" x="759.875"/>
    </g>
   </g>
   <g id="text_10">
    <!-- Template Editor -->
    <g style="fill: #333333" transform="translate(375.807891 99.227312) scale(0.11 -0.11)">
     <defs>
      <path id="DejaVuSans-Bold-54" d="M 31 4666 
L 4331 4666 
L 4331 3756 
L 2784 3756 
L 2784 0 
L 1581 0 
L 1581 3756 
L 31 3756 
L 31 4666 
z
" transform="scale(0.015625)"/>
      <path id="DejaVuSans-Bold-6d" d="M 3781 2919 
Q 3994 3244 4286 3414 
Q 4578 3584 4928 3584 
Q 5531 3584 5847 3212 
Q 6163 2841 6163 2131 
L 6163 0 
L 5038 0 
L 5038 1825 
Q 5041 1866 5042 1909 
Q 5044 1953 5044 2034 
Q 5044 2406 4934 2573 
Q 4825 2741 4581 2741 
Q 4263 2741 4089 2478 
Q 3916 2216 3909 1719 
L 3909 0 
L 2784 0 
L 2784 1825 
Q 2784 2406 2684 2573 
Q 2584 2741 2328 2741 
Q 2006 2741 1831 2477 
Q 1656 2213 1656 1722 
L 1656 0 
L 531 0 
L 531 3500 
L 1656 3500 
L 1656 2988 
Q 1863 3284 2130 3434 
Q 2397 3584 2719 3584 
Q 3081 3584 3359 3409 
Q 3638 3234 3781 2919 
z
" transform="scale(0.015625)"/>
      <path id="DejaVuSans-Bold-70" d="M 1656 506 
L 1656 -1331 
L 538 -1331 
L 538 3500 
L 1656 3500 
L 1656 2988 
Q 1888 3294 2169 3439 
Q 2450 3584 2816 3584 
Q 3463 3584 3878 3070 
Q 4294 2556 4294 1747 
Q 4294 938 3878 423 
Q 3463 -91 2816 -91 
Q 2450 -91 2169 54 
Q 1888 200 1656 506 
z
M 2400 2772 
Q 2041 2772 1848 2508 
Q 1656 2244 1656 1747 
Q 1656 1250 1848 986 
Q 2041 722 2400 722 
Q 2759 722 2948 984 
Q 3138 1247 3138 1747 
Q 3138 2247 2948 2509 
Q 2759 2772 2400 2772 
z
" transform="scale(0.015625)"/>
      <path id="DejaVuSans-Bold-45" d="M 588 4666 
L 3834 4666 
L 3834 3756 
L 1791 3756 
L 1791 2888 
L 3713 2888 
L 3713 1978 
L 1791 1978 
L 1791 909 
L 3903 909 
L 3903 0 
L 588 0 
L 588 4666 
z
" transform="scale(0.015625)"/>
      <path id="DejaVuSans-Bold-64" d="M 2919 2988 
L 2919 4863 
L 4044 4863 
L 4044 0 
L 2919 0 
L 2919 506 
Q 2688 197 2409 53 
Q 2131 -91 1766 -91 
Q 1119 -91 703 423 
Q 288 938 288 1747 
Q 288 2556 703 3070 
Q 1119 3584 1766 3584 
Q 2128 3584 2408 3439 
Q 2688 3294 2919 2988 
z
M 2181 722 
Q 2541 722 2730 984 
Q 2919 1247 2919 1747 
Q 2919 2247 2730 2509 
Q 2541 2772 2181 2772 
Q 1825 2772 1636 2509 
Q 1447 2247 1447 1747 
Q 1447 1247 1636 984 
Q 1825 722 2181 722 
z
" transform="scale(0.015625)"/>
      <path id="DejaVuSans-Bold-72" d="M 3138 2547 
Q 2991 2616 2845 2648 
Q 2700 2681 2553 2681 
Q 2122 2681 1889 2404 
Q 1656 2128 1656 1613 
L 1656 0 
L 538 0 
L 538 3500 
L 1656 3500 
L 1656 2925 
Q 1872 3269 2151 3426 
Q 2431 3584 2822 3584 
Q 2878 3584 2943 3579 
Q 3009 3575 3134 3559 
L 3138 2547 
z
" transform="scale(0.015625)"/>
     </defs>
     <use xlink:href="#DejaVuSans-Bold-54"/>
     <use xlink:href="#DejaVuSans-Bold-65" x="54.962891"/>
     <use xlink:href="#DejaVuSans-Bold-6d" x="122.785156"/>
     <use xlink:href="#DejaVuSans-Bold-70" x="226.984375"/>
     <use xlink:href="#DejaVuSans-Bold-6c" x="298.566406"/>
     <use xlink:href="#DejaVuSans-Bold-61" x="332.84375"/>
     <use xlink:href="#DejaVuSans-Bold-74" x="400.324219"/>
     <use xlink:href="#DejaVuSans-Bold-65" x="448.126953"/>
     <use xlink:href="#DejaVuSans-Bold-20" x="515.949219"/>
     <use xlink:href="#DejaVuSans-Bold-45" x="550.763672"/>
     <use xlink:href="#DejaVuSans-Bold-64" x="619.074219"/>
     <use xlink:href="#DejaVuSans-Bold-69" x="690.65625"/>
     <use xlink:href="#DejaVuSans-Bold-74" x="724.933594"/>
     <use xlink:href="#DejaVuSans-Bold-6f" x="772.736328"/>
     <use xlink:href="#DejaVuSans-Bold-72" x="841.4375"/>
    </g>
   </g>
   <g id="text_11">
    <!-- • Name    • Category  • Signature -->
    <g style="fill: #333333" transform="translate(223.92 107.28) scale(0.09 -0.09)">
     <defs>
      <path id="DejaVuSans-2022" d="M 959 2381 
Q 959 2769 1229 3036 
Q 1500 3303 1894 3303 
Q 2281 3303 2548 3036 
Q 2816 2769 2816 2381 
Q 2816 1991 2547 1722 
Q 2278 1453 1888 1453 
Q 1497 1453 1228 1722 
Q 959 1991 959 2381 
z
" transform="scale(0.015625)"/>
      <path id="DejaVuSans-4e" d="M 628 4666 
L 1478 4666 
L 3547 763 
L 3547 4666 
L 4159 4666 
L 4159 0 
L 3309 0 
L 1241 3903 
L 1241 0 
L 628 0 
L 628 4666 
z
" transform="scale(0.015625)"/>
      <path id="DejaVuSans-43" d="M 4122 4306 
L 4122 3641 
Q 3803 3938 3442 4084 
Q 3081 4231 2675 4231 
Q 1875 4231 1450 3742 
Q 1025 3253 1025 2328 
Q 1025 1406 1450 917 
Q 1875 428 2675 428 
Q 3081 428 3442 575 
Q 3803 722 4122 1019 
L 4122 359 
Q 3791 134 3420 21 
Q 3050 -91 2638 -91 
Q 1578 -91 968 557 
Q 359 1206 359 2328 
Q 359 3453 968 4101 
Q 1578 4750 2638 4750 
Q 3056 4750 3426 4639 
Q 3797 4528 4122 4306 
z
" transform="scale(0.015625)"/>
      <path id="DejaVuSans-79" d="M 2059 -325 
Q 1816 -950 1584 -1140 
Q 1353 -1331 966 -1331 
L 506 -1331 
L 506 -850 
L 844 -850 
Q 1081 -850 1212 -737 
Q 1344 -625 1503 -206 
L 1606 56 
L 191 3500 
L 800 3500 
L 1894 763 
L 2988 3500 
L 3597 3500 
L 2059 -325 
z
" transform="scale(0.015625)"/>
     </defs>
     <use xlink:href="#DejaVuSans-2022"/>
     <use xlink:href="#DejaVuSans-20" x="58.984375"/>
     <use xlink:href="#DejaVuSans-4e" x="90.771484"/>
     <use xlink:href="#DejaVuSans-61" x="165.576172"/>
     <use xlink:href="#DejaVuSans-6d" x="226.855469"/>
     <use xlink:href="#DejaVuSans-65" x="324.267578"/>
     <use xlink:href="#DejaVuSans-20" x="385.791016"/>
     <use xlink:href="#DejaVuSans-20" x="417.578125"/>
     <use xlink:href="#DejaVuSans-20" x="449.365234"/>
     <use xlink:href="#DejaVuSans-20" x="481.152344"/>
     <use xlink:href="#DejaVuSans-2022" x="512.939453"/>
     <use xlink:href="#DejaVuSans-20" x="571.923828"/>
     <use xlink:href="#DejaVuSans-43" x="603.710938"/>
     <use xlink:href="#DejaVuSans-61" x="673.535156"/>
     <use xlink:href="#DejaVuSans-74" x="734.814453"/>
     <use xlink:href="#DejaVuSans-65" x="774.023438"/>
     <use xlink:href="#DejaVuSans-67" x="835.546875"/>
     <use xlink:href="#DejaVuSans-6f" x="899.023438"/>
     <use xlink:href="#DejaVuSans-72" x="960.205078"/>
     <use xlink:href="#DejaVuSans-79" x="1001.318359"/>
     <use xlink:href="#DejaVuSans-20" x="1060.498047"/>
     <use xlink:href="#DejaVuSans-20" x="1092.285156"/>
     <use xlink:href="#DejaVuSans-2022" x="1124.072266"/>
     <use xlink:href="#DejaVuSans-20" x="1183.056641"/>
     <use xlink:href="#DejaVuSans-53" x="1214.84375"/>
     <use xlink:href="#DejaVuSans-69" x="1278.320312"/>
     <use xlink:href="#DejaVuSans-67" x="1306.103516"/>
     <use xlink:href="#DejaVuSans-6e" x="1369.580078"/>
     <use xlink:href="#DejaVuSans-61" x="1432.958984"/>
     <use xlink:href="#DejaVuSans-74" x="1494.238281"/>
     <use xlink:href="#DejaVuSans-75" x="1533.447266"/>
     <use xlink:href="#DejaVuSans-72" x="1596.826172"/>
     <use xlink:href="#DejaVuSans-65" x="1635.689453"/>
    </g>
   </g>
   <g id="text_12">
    <!-- • Subject (placeholders) -->
    <g style="fill: #333333" transform="translate(223.92 129.456) scale(0.09 -0.09)">
     <defs>
      <path id="DejaVuSans-6a" d="M 603 3500 
L 1178 3500 
L 1178 -63 
Q 1178 -731 923 -1031 
Q 669 -1331 103 -1331 
L -116 -1331 
L -116 -844 
L 38 -844 
Q 366 -844 484 -692 
Q 603 -541 603 -63 
L 603 3500 
z
M 603 4863 
L 1178 4863 
L 1178 4134 
L 603 4134 
L 603 4863 
z
" transform="scale(0.015625)"/>
      <path id="DejaVuSans-28" d="M 1984 4856 
Q 1566 4138 1362 3434 
Q 1159 2731 1159 2009 
Q 1159 1288 1364 580 
Q 1569 -128 1984 -844 
L 1484 -844 
Q 1016 -109 783 600 
Q 550 1309 550 2009 
Q 550 2706 781 3412 
Q 1013 4119 1484 4856 
L 1984 4856 
z
" transform="scale(0.015625)"/>
      <path id="DejaVuSans-29" d="M 513 4856 
L 1013 4856 
Q 1481 4119 1714 3412 
Q 1947 2706 1947 2009 
Q 1947 1309 1714 600 
Q 1481 -109 1013 -844 
L 513 -844 
Q 928 -128 1133 580 
Q 1338 1288 1338 2009 
Q 1338 2731 1133 3434 
Q 928 4138 513 4856 
z
" transform="scale(0.015625)"/>
     </defs>
     <use xlink:href="#DejaVuSans-2022"/>
     <use xlink:href="#DejaVuSans-20" x="58.984375"/>
     <use xlink:href="#DejaVuSans-53" x="90.771484"/>
     <use xlink:href="#DejaVuSans-75" x="154.248047"/>
     <use xlink:href="#DejaVuSans-62" x="217.626953"/>
     <use xlink:href="#DejaVuSans-6a" x="281.103516"/>
     <use xlink:href="#DejaVuSans-65" x="308.886719"/>
     <use xlink:href="#DejaVuSans-63" x="370.410156"/>
     <use xlink:href="#DejaVuSans-74" x="425.390625"/>
     <use xlink:href="#DejaVuSans-20" x="464.599609"/>
     <use xlink:href="#DejaVuSans-28" x="496.386719"/>
     <use xlink:href="#DejaVuSans-70" x="535.400391"/>
     <use xlink:href="#DejaVuSans-6c" x="598.876953"/>
     <use xlink:href="#DejaVuSans-61" x="626.660156"/>
     <use xlink:href="#DejaVuSans-63" x="687.939453"/>
     <use xlink:href="#DejaVuSans-65" x="742.919922"/>
     <use xlink:href="#DejaVuSans-68" x="804.443359"/>
     <use xlink:href="#DejaVuSans-6f" x="867.822266"/>
     <use xlink:href="#DejaVuSans-6c" x="929.003906"/>
     <use xlink:href="#DejaVuSans-64" x="956.787109"/>
     <use xlink:href="#DejaVuSans-65" x="1020.263672"/>
     <use xlink:href="#DejaVuSans-72" x="1081.787109"/>
     <use xlink:href="#DejaVuSans-73" x="1122.900391"/>
     <use xlink:href="#DejaVuSans-29" x="1175"/>
    </g>
   </g>
   <g id="text_13">
    <!-- • Body (HTML/text with placeholders) -->
    <g style="fill: #333333" transform="translate(223.92 151.632) scale(0.09 -0.09)">
     <defs>
      <path id="DejaVuSans-42" d="M 1259 2228 
L 1259 519 
L 2272 519 
Q 2781 519 3026 730 
Q 3272 941 3272 1375 
Q 3272 1813 3026 2020 
Q 2781 2228 2272 2228 
L 1259 2228 
z
M 1259 4147 
L 1259 2741 
L 2194 2741 
Q 2656 2741 2882 2914 
Q 3109 3088 3109 3444 
Q 3109 3797 2882 3972 
Q 2656 4147 2194 4147 
L 1259 4147 
z
M 628 4666 
L 2241 4666 
Q 2963 4666 3353 4366 
Q 3744 4066 3744 3513 
Q 3744 3084 3544 2831 
Q 3344 2578 2956 2516 
Q 3422 2416 3680 2098 
Q 3938 1781 3938 1306 
Q 3938 681 3513 340 
Q 3088 0 2303 0 
L 628 0 
L 628 4666 
z
" transform="scale(0.015625)"/>
      <path id="DejaVuSans-48" d="M 628 4666 
L 1259 4666 
L 1259 2753 
L 3553 2753 
L 3553 4666 
L 4184 4666 
L 4184 0 
L 3553 0 
L 3553 2222 
L 1259 2222 
L 1259 0 
L 628 0 
L 628 4666 
z
" transform="scale(0.015625)"/>
      <path id="DejaVuSans-4d" d="M 628 4666 
L 1569 4666 
L 2759 1491 
L 3956 4666 
L 4897 4666 
L 4897 0 
L 4281 0 
L 4281 4097 
L 3078 897 
L 2444 897 
L 1241 4097 
L 1241 0 
L 628 0 
L 628 4666 
z
" transform="scale(0.015625)"/>
      <path id="DejaVuSans-4c" d="M 628 4666 
L 1259 4666 
L 1259 531 
L 3531 531 
L 3531 0 
L 628 0 
L 628 4666 
z
" transform="scale(0.015625)"/>
      <path id="DejaVuSans-2f" d="M 1625 4666 
L 2156 4666 
L 531 -594 
L 0 -594 
L 1625 4666 
z
" transform="scale(0.015625)"/>
      <path id="DejaVuSans-78" d="M 3513 3500 
L 2247 1797 
L 3578 0 
L 2900 0 
L 1881 1375 
L 863 0 
L 184 0 
L 1544 1831 
L 300 3500 
L 978 3500 
L 1906 2253 
L 2834 3500 
L 3513 3500 
z
" transform="scale(0.015625)"/>
      <path id="DejaVuSans-77" d="M 269 3500 
L 844 3500 
L 1563 769 
L 2278 3500 
L 2956 3500 
L 3675 769 
L 4391 3500 
L 4966 3500 
L 4050 0 
L 3372 0 
L 2619 2869 
L 1863 0 
L 1184 0 
L 269 3500 
z
" transform="scale(0.015625)"/>
     </defs>
     <use xlink:href="#DejaVuSans-2022"/>
     <use xlink:href="#DejaVuSans-20" x="58.984375"/>
     <use xlink:href="#DejaVuSans-42" x="90.771484"/>
     <use xlink:href="#DejaVuSans-6f" x="159.375"/>
     <use xlink:href="#DejaVuSans-64" x="220.556641"/>
     <use xlink:href="#DejaVuSans-79" x="284.033203"/>
     <use xlink:href="#DejaVuSans-20" x="343.212891"/>
     <use xlink:href="#DejaVuSans-28" x="375"/>
     <use xlink:href="#DejaVuSans-48" x="414.013672"/>
     <use xlink:href="#DejaVuSans-54" x="489.208984"/>
     <use xlink:href="#DejaVuSans-4d" x="550.292969"/>
     <use xlink:href="#DejaVuSans-4c" x="636.572266"/>
     <use xlink:href="#DejaVuSans-2f" x="692.285156"/>
     <use xlink:href="#DejaVuSans-74" x="725.976562"/>
     <use xlink:href="#DejaVuSans-65" x="765.185547"/>
     <use xlink:href="#DejaVuSans-78" x="824.958984"/>
     <use xlink:href="#DejaVuSans-74" x="884.138672"/>
     <use xlink:href="#DejaVuSans-20" x="923.347656"/>
     <use xlink:href="#DejaVuSans-77" x="955.134766"/>
     <use xlink:href="#DejaVuSans-69" x="1036.921875"/>
     <use xlink:href="#DejaVuSans-74" x="1064.705078"/>
     <use xlink:href="#DejaVuSans-68" x="1103.914062"/>
     <use xlink:href="#DejaVuSans-20" x="1167.292969"/>
     <use xlink:href="#DejaVuSans-70" x="1199.080078"/>
     <use xlink:href="#DejaVuSans-6c" x="1262.556641"/>
     <use xlink:href="#DejaVuSans-61" x="1290.339844"/>
     <use xlink:href="#DejaVuSans-63" x="1351.619141"/>
     <use xlink:href="#DejaVuSans-65" x="1406.599609"/>
     <use xlink:href="#DejaVuSans-68" x="1468.123047"/>
     <use xlink:href="#DejaVuSans-6f" x="1531.501953"/>
     <use xlink:href="#DejaVuSans-6c" x="1592.683594"/>
     <use xlink:href="#DejaVuSans-64" x="1620.466797"/>
     <use xlink:href="#DejaVuSans-65" x="1683.943359"/>
     <use xlink:href="#DejaVuSans-72" x="1745.466797"/>
     <use xlink:href="#DejaVuSans-73" x="1786.580078"/>
     <use xlink:href="#DejaVuSans-29" x="1838.679688"/>
    </g>
   </g>
   <g id="text_14">
    <!-- • Placeholder Manager (ZoomLink, LocalDateTime, etc.) -->
    <g style="fill: #333333" transform="translate(223.92 173.808) scale(0.09 -0.09)">
     <defs>
      <path id="DejaVuSans-5a" d="M 359 4666 
L 4025 4666 
L 4025 4184 
L 1075 531 
L 4097 531 
L 4097 0 
L 288 0 
L 288 481 
L 3238 4134 
L 359 4134 
L 359 4666 
z
" transform="scale(0.015625)"/>
      <path id="DejaVuSans-2c" d="M 750 794 
L 1409 794 
L 1409 256 
L 897 -744 
L 494 -744 
L 750 256 
L 750 794 
z
" transform="scale(0.015625)"/>
      <path id="DejaVuSans-2e" d="M 684 794 
L 1344 794 
L 1344 0 
L 684 0 
L 684 794 
z
" transform="scale(0.015625)"/>
     </defs>
     <use xlink:href="#DejaVuSans-2022"/>
     <use xlink:href="#DejaVuSans-20" x="58.984375"/>
     <use xlink:href="#DejaVuSans-50" x="90.771484"/>
     <use xlink:href="#DejaVuSans-6c" x="151.074219"/>
     <use xlink:href="#DejaVuSans-61" x="178.857422"/>
     <use xlink:href="#DejaVuSans-63" x="240.136719"/>
     <use xlink:href="#DejaVuSans-65" x="295.117188"/>
     <use xlink:href="#DejaVuSans-68" x="356.640625"/>
     <use xlink:href="#DejaVuSans-6f" x="420.019531"/>
     <use xlink:href="#DejaVuSans-6c" x="481.201172"/>
     <use xlink:href="#DejaVuSans-64" x="508.984375"/>
     <use xlink:href="#DejaVuSans-65" x="572.460938"/>
     <use xlink:href="#DejaVuSans-72" x="633.984375"/>
     <use xlink:href="#DejaVuSans-20" x="675.097656"/>
     <use xlink:href="#DejaVuSans-4d" x="706.884766"/>
     <use xlink:href="#DejaVuSans-61" x="793.164062"/>
     <use xlink:href="#DejaVuSans-6e" x="854.443359"/>
     <use xlink:href="#DejaVuSans-61" x="917.822266"/>
     <use xlink:href="#DejaVuSans-67" x="979.101562"/>
     <use xlink:href="#DejaVuSans-65" x="1042.578125"/>
     <use xlink:href="#DejaVuSans-72" x="1104.101562"/>
     <use xlink:href="#DejaVuSans-20" x="1145.214844"/>
     <use xlink:href="#DejaVuSans-28" x="1177.001953"/>
     <use xlink:href="#DejaVuSans-5a" x="1216.015625"/>
     <use xlink:href="#DejaVuSans-6f" x="1284.521484"/>
     <use xlink:href="#DejaVuSans-6f" x="1345.703125"/>
     <use xlink:href="#DejaVuSans-6d" x="1406.884766"/>
     <use xlink:href="#DejaVuSans-4c" x="1504.296875"/>
     <use xlink:href="#DejaVuSans-69" x="1560.009766"/>
     <use xlink:href="#DejaVuSans-6e" x="1587.792969"/>
     <use xlink:href="#DejaVuSans-6b" x="1651.171875"/>
     <use xlink:href="#DejaVuSans-2c" x="1709.082031"/>
     <use xlink:href="#DejaVuSans-20" x="1740.869141"/>
     <use xlink:href="#DejaVuSans-4c" x="1772.65625"/>
     <use xlink:href="#DejaVuSans-6f" x="1826.619141"/>
     <use xlink:href="#DejaVuSans-63" x="1887.800781"/>
     <use xlink:href="#DejaVuSans-61" x="1942.78125"/>
     <use xlink:href="#DejaVuSans-6c" x="2004.060547"/>
     <use xlink:href="#DejaVuSans-44" x="2031.84375"/>
     <use xlink:href="#DejaVuSans-61" x="2108.845703"/>
     <use xlink:href="#DejaVuSans-74" x="2170.125"/>
     <use xlink:href="#DejaVuSans-65" x="2209.333984"/>
     <use xlink:href="#DejaVuSans-54" x="2270.857422"/>
     <use xlink:href="#DejaVuSans-69" x="2328.816406"/>
     <use xlink:href="#DejaVuSans-6d" x="2356.599609"/>
     <use xlink:href="#DejaVuSans-65" x="2454.011719"/>
     <use xlink:href="#DejaVuSans-2c" x="2515.535156"/>
     <use xlink:href="#DejaVuSans-20" x="2547.322266"/>
     <use xlink:href="#DejaVuSans-65" x="2579.109375"/>
     <use xlink:href="#DejaVuSans-74" x="2640.632812"/>
     <use xlink:href="#DejaVuSans-63" x="2679.841797"/>
     <use xlink:href="#DejaVuSans-2e" x="2734.822266"/>
     <use xlink:href="#DejaVuSans-29" x="2766.609375"/>
    </g>
   </g>
   <g id="text_15">
    <!-- Live Preview -->
    <g style="fill: #333333" transform="translate(385.422578 232.283312) scale(0.11 -0.11)">
     <defs>
      <path id="DejaVuSans-Bold-4c" d="M 588 4666 
L 1791 4666 
L 1791 909 
L 3903 909 
L 3903 0 
L 588 0 
L 588 4666 
z
" transform="scale(0.015625)"/>
      <path id="DejaVuSans-Bold-77" d="M 225 3500 
L 1313 3500 
L 1900 1088 
L 2491 3500 
L 3425 3500 
L 4013 1113 
L 4603 3500 
L 5691 3500 
L 4769 0 
L 3547 0 
L 2956 2406 
L 2369 0 
L 1147 0 
L 225 3500 
z
" transform="scale(0.015625)"/>
     </defs>
     <use xlink:href="#DejaVuSans-Bold-4c"/>
     <use xlink:href="#DejaVuSans-Bold-69" x="63.720703"/>
     <use xlink:href="#DejaVuSans-Bold-76" x="97.998047"/>
     <use xlink:href="#DejaVuSans-Bold-65" x="163.183594"/>
     <use xlink:href="#DejaVuSans-Bold-20" x="231.005859"/>
     <use xlink:href="#DejaVuSans-Bold-50" x="265.820312"/>
     <use xlink:href="#DejaVuSans-Bold-72" x="339.111328"/>
     <use xlink:href="#DejaVuSans-Bold-65" x="388.427734"/>
     <use xlink:href="#DejaVuSans-Bold-76" x="456.25"/>
     <use xlink:href="#DejaVuSans-Bold-69" x="521.435547"/>
     <use xlink:href="#DejaVuSans-Bold-65" x="555.712891"/>
     <use xlink:href="#DejaVuSans-Bold-77" x="623.535156"/>
    </g>
   </g>
   <g id="text_16">
    <!-- Hi &lt;RecipientName&gt;, -->
    <g style="fill: #333333" transform="translate(223.92 251.424) scale(0.09 -0.09)">
     <defs>
      <path id="DejaVuSans-3c" d="M 4684 3150 
L 1459 2003 
L 4684 863 
L 4684 294 
L 678 1747 
L 678 2266 
L 4684 3719 
L 4684 3150 
z
" transform="scale(0.015625)"/>
      <path id="DejaVuSans-3e" d="M 678 3150 
L 678 3719 
L 4684 2266 
L 4684 1747 
L 678 294 
L 678 863 
L 3897 2003 
L 678 3150 
z
" transform="scale(0.015625)"/>
     </defs>
     <use xlink:href="#DejaVuSans-48"/>
     <use xlink:href="#DejaVuSans-69" x="75.195312"/>
     <use xlink:href="#DejaVuSans-20" x="102.978516"/>
     <use xlink:href="#DejaVuSans-3c" x="134.765625"/>
     <use xlink:href="#DejaVuSans-52" x="218.554688"/>
     <use xlink:href="#DejaVuSans-65" x="283.537109"/>
     <use xlink:href="#DejaVuSans-63" x="345.060547"/>
     <use xlink:href="#DejaVuSans-69" x="400.041016"/>
     <use xlink:href="#DejaVuSans-70" x="427.824219"/>
     <use xlink:href="#DejaVuSans-69" x="491.300781"/>
     <use xlink:href="#DejaVuSans-65" x="519.083984"/>
     <use xlink:href="#DejaVuSans-6e" x="580.607422"/>
     <use xlink:href="#DejaVuSans-74" x="643.986328"/>
     <use xlink:href="#DejaVuSans-4e" x="683.195312"/>
     <use xlink:href="#DejaVuSans-61" x="758"/>
     <use xlink:href="#DejaVuSans-6d" x="819.279297"/>
     <use xlink:href="#DejaVuSans-65" x="916.691406"/>
     <use xlink:href="#DejaVuSans-3e" x="978.214844"/>
     <use xlink:href="#DejaVuSans-2c" x="1062.003906"/>
    </g>
   </g>
   <g id="text_17">
    <!-- Please join at &lt;ZoomLink&gt; on &lt;LocalDateTime&gt;. -->
    <g style="fill: #333333" transform="translate(223.92 268.056) scale(0.09 -0.09)">
     <use xlink:href="#DejaVuSans-50"/>
     <use xlink:href="#DejaVuSans-6c" x="60.302734"/>
     <use xlink:href="#DejaVuSans-65" x="88.085938"/>
     <use xlink:href="#DejaVuSans-61" x="149.609375"/>
     <use xlink:href="#DejaVuSans-73" x="210.888672"/>
     <use xlink:href="#DejaVuSans-65" x="262.988281"/>
     <use xlink:href="#DejaVuSans-20" x="324.511719"/>
     <use xlink:href="#DejaVuSans-6a" x="356.298828"/>
     <use xlink:href="#DejaVuSans-6f" x="384.082031"/>
     <use xlink:href="#DejaVuSans-69" x="445.263672"/>
     <use xlink:href="#DejaVuSans-6e" x="473.046875"/>
     <use xlink:href="#DejaVuSans-20" x="536.425781"/>
     <use xlink:href="#DejaVuSans-61" x="568.212891"/>
     <use xlink:href="#DejaVuSans-74" x="629.492188"/>
     <use xlink:href="#DejaVuSans-20" x="668.701172"/>
     <use xlink:href="#DejaVuSans-3c" x="700.488281"/>
     <use xlink:href="#DejaVuSans-5a" x="784.277344"/>
     <use xlink:href="#DejaVuSans-6f" x="852.783203"/>
     <use xlink:href="#DejaVuSans-6f" x="913.964844"/>
     <use xlink:href="#DejaVuSans-6d" x="975.146484"/>
     <use xlink:href="#DejaVuSans-4c" x="1072.558594"/>
     <use xlink:href="#DejaVuSans-69" x="1128.271484"/>
     <use xlink:href="#DejaVuSans-6e" x="1156.054688"/>
     <use xlink:href="#DejaVuSans-6b" x="1219.433594"/>
     <use xlink:href="#DejaVuSans-3e" x="1277.34375"/>
     <use xlink:href="#DejaVuSans-20" x="1361.132812"/>
     <use xlink:href="#DejaVuSans-6f" x="1392.919922"/>
     <use xlink:href="#DejaVuSans-6e" x="1454.101562"/>
     <use xlink:href="#DejaVuSans-20" x="1517.480469"/>
     <use xlink:href="#DejaVuSans-3c" x="1549.267578"/>
     <use xlink:href="#DejaVuSans-4c" x="1633.056641"/>
     <use xlink:href="#DejaVuSans-6f" x="1687.019531"/>
     <use xlink:href="#DejaVuSans-63" x="1748.201172"/>
     <use xlink:href="#DejaVuSans-61" x="1803.181641"/>
     <use xlink:href="#DejaVuSans-6c" x="1864.460938"/>
     <use xlink:href="#DejaVuSans-44" x="1892.244141"/>
     <use xlink:href="#DejaVuSans-61" x="1969.246094"/>
     <use xlink:href="#DejaVuSans-74" x="2030.525391"/>
     <use xlink:href="#DejaVuSans-65" x="2069.734375"/>
     <use xlink:href="#DejaVuSans-54" x="2131.257812"/>
     <use xlink:href="#DejaVuSans-69" x="2189.216797"/>
     <use xlink:href="#DejaVuSans-6d" x="2217"/>
     <use xlink:href="#DejaVuSans-65" x="2314.412109"/>
     <use xlink:href="#DejaVuSans-3e" x="2375.935547"/>
     <use xlink:href="#DejaVuSans-2e" x="2459.724609"/>
    </g>
   </g>
   <g id="text_18">
    <!-- &lt;UserMessage&gt; -->
    <g style="fill: #333333" transform="translate(223.92 284.688) scale(0.09 -0.09)">
     <defs>
      <path id="DejaVuSans-55" d="M 556 4666 
L 1191 4666 
L 1191 1831 
Q 1191 1081 1462 751 
Q 1734 422 2344 422 
Q 2950 422 3222 751 
Q 3494 1081 3494 1831 
L 3494 4666 
L 4128 4666 
L 4128 1753 
Q 4128 841 3676 375 
Q 3225 -91 2344 -91 
Q 1459 -91 1007 375 
Q 556 841 556 1753 
L 556 4666 
z
" transform="scale(0.015625)"/>
     </defs>
     <use xlink:href="#DejaVuSans-3c"/>
     <use xlink:href="#DejaVuSans-55" x="83.789062"/>
     <use xlink:href="#DejaVuSans-73" x="156.982422"/>
     <use xlink:href="#DejaVuSans-65" x="209.082031"/>
     <use xlink:href="#DejaVuSans-72" x="270.605469"/>
     <use xlink:href="#DejaVuSans-4d" x="311.71875"/>
     <use xlink:href="#DejaVuSans-65" x="397.998047"/>
     <use xlink:href="#DejaVuSans-73" x="459.521484"/>
     <use xlink:href="#DejaVuSans-73" x="511.621094"/>
     <use xlink:href="#DejaVuSans-61" x="563.720703"/>
     <use xlink:href="#DejaVuSans-67" x="625"/>
     <use xlink:href="#DejaVuSans-65" x="688.476562"/>
     <use xlink:href="#DejaVuSans-3e" x="750"/>
    </g>
   </g>
   <g id="text_19">
    <!-- Regards, -->
    <g style="fill: #333333" transform="translate(223.92 301.32) scale(0.09 -0.09)">
     <use xlink:href="#DejaVuSans-52"/>
     <use xlink:href="#DejaVuSans-65" x="64.982422"/>
     <use xlink:href="#DejaVuSans-67" x="126.505859"/>
     <use xlink:href="#DejaVuSans-61" x="189.982422"/>
     <use xlink:href="#DejaVuSans-72" x="251.261719"/>
     <use xlink:href="#DejaVuSans-64" x="290.625"/>
     <use xlink:href="#DejaVuSans-73" x="354.101562"/>
     <use xlink:href="#DejaVuSans-2c" x="406.201172"/>
    </g>
   </g>
   <g id="text_20">
    <!-- &lt;Signature&gt; -->
    <g style="fill: #333333" transform="translate(223.92 317.952) scale(0.09 -0.09)">
     <use xlink:href="#DejaVuSans-3c"/>
     <use xlink:href="#DejaVuSans-53" x="83.789062"/>
     <use xlink:href="#DejaVuSans-69" x="147.265625"/>
     <use xlink:href="#DejaVuSans-67" x="175.048828"/>
     <use xlink:href="#DejaVuSans-6e" x="238.525391"/>
     <use xlink:href="#DejaVuSans-61" x="301.904297"/>
     <use xlink:href="#DejaVuSans-74" x="363.183594"/>
     <use xlink:href="#DejaVuSans-75" x="402.392578"/>
     <use xlink:href="#DejaVuSans-72" x="465.771484"/>
     <use xlink:href="#DejaVuSans-65" x="504.634766"/>
     <use xlink:href="#DejaVuSans-3e" x="566.158203"/>
    </g>
   </g>
  </g>
 </g>
 <defs>
  <clipPath id="p4d03558eb6">
   <rect x="90" y="51.84" width="558" height="332.64"/>
  </clipPath>
 </defs>
</svg>
